<svg width="42" height="46" viewBox="0 0 42 46" fill="none" xmlns="http://www.w3.org/2000/svg">
<path d="M6.00094 26.0007V11.1507C5.87594 11.1107 6.03294 11.0777 5.07294 11.0537C3.38894 11.0117 2.00094 12.3677 2.00094 14.0527V26.0007C2.00094 29.0007 1.93094 29.8407 3.00094 31.0007C3.00094 31.0007 8.97094 38.6607 10.0009 40.0007V43.1407C10.0009 44.0007 10.8009 44.0007 11.0009 44.0007C11.8209 44.0007 18.0009 44.0007 18.0009 44.0007C19.0009 44.0007 19.0009 43.4307 19.0009 43.0007V38.0007C19.0009 37.9207 19.0009 37.8307 18.9909 37.7507C18.9209 34.2007 17.1209 31.5807 15.0609 29.5107L10.6119 24.7317C9.69594 23.7477 8.18494 23.6127 7.10894 24.4197L7.10494 24.4227C5.94294 25.2947 5.70694 26.9427 6.57894 28.1047L11.0009 34.0007" stroke="#1F2328" stroke-width="2.5" stroke-miterlimit="10" stroke-linecap="round" stroke-linejoin="round"/>
<path d="M31 34.0007L35.422 28.1047C36.294 26.9427 36.058 25.2947 34.896 24.4227L34.892 24.4197C33.816 23.6127 32.305 23.7477 31.389 24.7317L26.94 29.5107C24.88 31.5807 23.08 34.2007 23.01 37.7507C23 37.8307 23 37.9207 23 38.0007V43.0007C23 43.4307 23 44.0007 24 44.0007C24 44.0007 30.18 44.0007 31 44.0007C31.2 44.0007 32 44.0007 32 43.1407V40.0007C33.03 38.6607 39 31.0007 39 31.0007C40.07 29.8407 40 29.0007 40 26.0007V14.0527C40 12.3677 38.612 11.0117 36.928 11.0537C35.968 11.0777 36.125 11.1107 36 11.1507V26.0007" stroke="#1F2328" stroke-width="2.5" stroke-miterlimit="10" stroke-linecap="round" stroke-linejoin="round"/>
<path d="M16.7344 31.4414L20.9994 34.0004" stroke="#1F2328" stroke-width="2.5" stroke-miterlimit="10" stroke-linecap="round" stroke-linejoin="round"/>
<path d="M25.265 31.4414L21 34.0004" stroke="#1F2328" stroke-width="2.5" stroke-miterlimit="10" stroke-linecap="round" stroke-linejoin="round"/>
<path d="M36 25V9L21 2L6 9V21V25" stroke="#1F2328" stroke-width="2.5" stroke-miterlimit="10" stroke-linecap="round" stroke-linejoin="round"/>
<path d="M32.5 11L21 17V29.5" stroke="#FCD535" stroke-width="2.5" stroke-miterlimit="10" stroke-linecap="round" stroke-linejoin="round"/>
<path d="M9.5 11L21 17" stroke="#FCD535" stroke-width="2.5" stroke-miterlimit="10" stroke-linecap="round" stroke-linejoin="round"/>
</svg>
