<svg width="40" height="41" viewBox="0 0 40 41" fill="none" xmlns="http://www.w3.org/2000/svg">
<path d="M18.8947 15.4453C18.8947 13.5422 17.3525 12 15.4494 12C13.5463 12 12.0041 13.5422 12.0041 15.4453V17.5781C12.0041 18.1359 12.4307 18.5625 12.9885 18.5625C13.5463 18.5625 13.9729 18.1359 13.9729 17.5781V15.4453C13.9729 14.625 14.6291 13.9688 15.4494 13.9688C16.2697 13.9688 16.926 14.625 16.926 15.4453C16.926 17.8734 16.1057 20.3016 14.6619 22.2375L12.201 25.5187C11.9713 25.8141 11.9385 26.2078 12.1025 26.5359C12.2666 26.8641 12.5947 27.0938 12.9885 27.0938H17.9104C18.4682 27.0938 18.8947 26.6672 18.8947 26.1094C18.8947 25.5516 18.4682 25.125 17.9104 25.125H14.9572L16.2369 23.4188C17.9432 21.1219 18.8947 18.3 18.8947 15.4453ZM26.1135 27.0938C26.6713 27.0938 27.0979 26.6672 27.0979 26.1094V13.9688C27.0979 12.8859 26.2119 12 25.1291 12C24.3416 12 23.5869 12.4922 23.2916 13.2469L19.6166 22.7953C19.4854 23.0906 19.551 23.4516 19.715 23.7141C19.8791 23.9766 20.2072 24.1406 20.5354 24.1406H25.1291V26.1094C25.1291 26.6672 25.5557 27.0938 26.1135 27.0938ZM21.9791 22.1719L25.1291 13.9688V22.1719H21.9791Z" fill="#1F2328"/>
<path d="M4 19C4 9.61136 11.165 2 20 2C28.835 2 36 9.61136 36 19" stroke="#1F2328" stroke-width="2.5" stroke-miterlimit="10"/>
<path d="M22 37C22.6269 37 28.1258 37 28.7418 37C29.5429 37 35.7418 33.376 36 25" stroke="#1F2328" stroke-width="1.5" stroke-miterlimit="10"/>
<path d="M6.15385 13C2.33077 13 0 16.1344 0 20C0 23.8656 2.33077 27 6.15385 27C7.00462 27 7.69231 26.3047 7.69231 25.4444V14.5556C7.69231 13.6969 7.00462 13 6.15385 13ZM33.8462 27C37.6692 27 40 23.8656 40 20C40 16.1344 37.6692 13 33.8462 13C32.9954 13 32.3077 13.6969 32.3077 14.5556V25.4444C32.3077 26.3047 32.9954 27 33.8462 27ZM21.5385 33.2222C20.3144 33.2222 19.1404 33.6319 18.2749 34.3613C17.4093 35.0906 16.9231 36.0797 16.9231 37.1111C16.9231 38.1425 17.4093 39.1317 18.2749 39.861C19.1404 40.5903 20.3144 41 21.5385 41C22.7625 41 23.9365 40.5903 24.802 39.861C25.6676 39.1317 26.1538 38.1425 26.1538 37.1111C26.1538 36.0797 25.6676 35.0906 24.802 34.3613C23.9365 33.6319 22.7625 33.2222 21.5385 33.2222Z" fill="#FCD535"/>
</svg>
