<svg width="42" height="30" viewBox="0 0 42 30" fill="none" xmlns="http://www.w3.org/2000/svg">
<path d="M37.1557 27.9243H4.84796C3.06296 27.9243 1.61719 26.4785 1.61719 24.6935V5.30889C1.61719 3.52389 3.06296 2.07812 4.84796 2.07812H37.1557C38.9407 2.07812 40.3864 3.52389 40.3864 5.30889V24.6935C40.3864 26.4785 38.9407 27.9243 37.1557 27.9243Z" stroke="#1F2328" stroke-width="3" stroke-miterlimit="10"/>
<path d="M26.3819 13.25L24.865 8.48675C24.7569 8.19425 24.4826 8 24.176 8H16.8231C16.5165 8 16.2422 8.19425 16.1341 8.48675L14.6172 13.25H26.3819Z" fill="#1F2328"/>
<path d="M18.6868 15.2045L20.5 20H8L9.76471 15.2045C9.88015 14.9285 10.1463 14.75 10.4404 14.75H18.011C18.3051 14.75 18.5713 14.9285 18.6868 15.2045Z" fill="#FCD535"/>
<path d="M22.0765 20L21.8721 19.46L21.2765 17.8865L22.2625 15.2045C22.3779 14.9285 22.6441 14.75 22.9382 14.75H30.5618C30.8559 14.75 31.1213 14.9285 31.2375 15.2045L33 20H22.0765Z" fill="#FCD535"/>
</svg>
