<svg width="26" height="26" viewBox="0 0 26 26" fill="none" xmlns="http://www.w3.org/2000/svg">
<path d="M23.9903 3.40703C23.6003 3.07631 22.9877 3.02899 22.3543 3.28327H22.3533C21.6872 3.55055 3.49757 11.3526 2.75709 11.6714C2.62241 11.7182 1.44617 12.1571 1.56733 13.1347C1.67549 14.0161 2.62085 14.3811 2.73629 14.4232L7.36065 16.0066C7.66745 17.0279 8.79845 20.7958 9.04857 21.6008C9.20457 22.1026 9.45885 22.762 9.90449 22.8977C10.2955 23.0485 10.6845 22.9107 10.9362 22.7131L13.7634 20.0907L18.3275 23.6501L18.4361 23.7151C18.7461 23.8524 19.043 23.921 19.3264 23.921C19.5453 23.921 19.7554 23.88 19.9561 23.7978C20.6399 23.517 20.9134 22.8654 20.942 22.7916L24.3511 5.07155C24.5591 4.12515 24.27 3.64363 23.9903 3.40703ZM11.439 16.64L9.87901 20.8L8.31901 15.6L20.279 6.75999L11.439 16.64Z" fill="#989A9C"/>
</svg>
