<svg width="27" height="27" viewBox="0 0 27 27" fill="none" xmlns="http://www.w3.org/2000/svg">
<path d="M23.7847 11.2755H21.519C21.7032 11.9386 21.7953 12.6018 21.7953 13.2649C21.7953 14.3702 21.5834 15.4202 21.1597 16.4149C20.7361 17.4097 20.1558 18.2755 19.419 19.0123C18.6821 19.7491 17.8163 20.3294 16.8216 20.7531C15.8268 21.1768 14.7769 21.3886 13.6716 21.3886C12.5663 21.3886 11.5255 21.1768 10.5492 20.7531C9.5729 20.3294 8.71632 19.7491 7.97948 19.0123C7.24264 18.2755 6.66238 17.4097 6.23869 16.4149C5.81501 15.4202 5.60317 14.3702 5.60317 13.2649C5.60317 12.6018 5.69527 11.9386 5.87948 11.2755H3.55843V22.3834C3.55843 22.6781 3.65974 22.9176 3.86238 23.1018C4.06501 23.286 4.31369 23.3781 4.60843 23.3781H22.79C23.0847 23.3781 23.3242 23.286 23.5084 23.1018C23.6926 22.9176 23.7847 22.6781 23.7847 22.3834V11.2755ZM23.7847 4.20178C23.7847 3.90704 23.6926 3.65836 23.5084 3.45573C23.3242 3.25309 23.0847 3.15178 22.79 3.15178H19.7505C19.4558 3.15178 19.2163 3.25309 19.0321 3.45573C18.8479 3.65836 18.7558 3.90704 18.7558 4.20178V7.18599C18.7558 7.48073 18.8479 7.72941 19.0321 7.93204C19.2163 8.13467 19.4558 8.23599 19.7505 8.23599H22.79C23.0847 8.23599 23.3242 8.13467 23.5084 7.93204C23.6926 7.72941 23.7847 7.48073 23.7847 7.18599V4.20178ZM13.6716 8.23599C12.2716 8.23599 11.0834 8.72415 10.1071 9.70046C9.1308 10.6768 8.64264 11.8649 8.64264 13.2649C8.64264 13.9649 8.77159 14.6281 9.02948 15.2544C9.28738 15.8807 9.64659 16.4241 10.1071 16.8847C10.5676 17.3452 11.1019 17.7044 11.7097 17.9623C12.3176 18.2202 12.9716 18.3491 13.6716 18.3491C14.3716 18.3491 15.0347 18.2202 15.6611 17.9623C16.2874 17.7044 16.8308 17.3452 17.2913 16.8847C17.7519 16.4241 18.1111 15.8807 18.369 15.2544C18.6269 14.6281 18.7558 13.9649 18.7558 13.2649C18.7558 12.5649 18.6269 11.911 18.369 11.3031C18.1111 10.6952 17.7519 10.161 17.2913 9.70046C16.8308 9.23994 16.2874 8.88073 15.6611 8.62283C15.0347 8.36494 14.3716 8.23599 13.6716 8.23599ZM3.55843 26.4176C2.71106 26.4176 2.00185 26.1228 1.4308 25.5334C0.859745 24.9439 0.574219 24.2255 0.574219 23.3781V3.15178C0.574219 2.30441 0.859745 1.58599 1.4308 0.996515C2.00185 0.407042 2.71106 0.112305 3.55843 0.112305H23.7847C24.6321 0.112305 25.3505 0.407042 25.94 0.996515C26.5295 1.58599 26.8242 2.30441 26.8242 3.15178V23.3781C26.8242 24.2255 26.5295 24.9439 25.94 25.5334C25.3505 26.1228 24.6321 26.4176 23.7847 26.4176H3.55843Z" fill="#989A9C"/>
</svg>
