<svg version="1.1" xmlns="http://www.w3.org/2000/svg" xmlns:xlink="http://www.w3.org/1999/xlink" width="30px" height="30px" viewBox="0,0,256,256"><g fill="#339af0" fill-rule="nonzero" stroke="none" stroke-width="1" stroke-linecap="butt" stroke-linejoin="miter" stroke-miterlimit="10" stroke-dasharray="" stroke-dashoffset="0" font-family="none" font-weight="none" font-size="none" text-anchor="none" style="mix-blend-mode: normal"><g transform="scale(8.53333,8.53333)"><path d="M14.98438,1c-0.25977,0.00414 -0.50774,0.10921 -0.69141,0.29297l-4,4c-0.26124,0.25082 -0.36647,0.62327 -0.27511,0.97371c0.09136,0.35044 0.36503,0.62411 0.71547,0.71547c0.35044,0.09136 0.72289,-0.01388 0.97371,-0.27511l2.29297,-2.29297v12.58594c-0.0051,0.36064 0.18438,0.69608 0.49587,0.87789c0.3115,0.18181 0.69676,0.18181 1.00825,0c0.3115,-0.18181 0.50097,-0.51725 0.49587,-0.87789v-12.58594l2.29297,2.29297c0.25082,0.26124 0.62327,0.36647 0.97371,0.27511c0.35044,-0.09136 0.62411,-0.36503 0.71547,-0.71547c0.09136,-0.35044 -0.01388,-0.72289 -0.27511,-0.97371l-4,-4c-0.19132,-0.19141 -0.45205,-0.29711 -0.72266,-0.29297zM9,9c-1.64497,0 -3,1.35503 -3,3v12c0,1.64497 1.35503,3 3,3h12c1.64497,0 3,-1.35503 3,-3v-12c0,-1.64497 -1.35503,-3 -3,-3h-2v2h2c0.56503,0 1,0.43497 1,1v12c0,0.56503 -0.43497,1 -1,1h-12c-0.56503,0 -1,-0.43497 -1,-1v-12c0,-0.56503 0.43497,-1 1,-1h2v-2z"></path></g></g></svg>