<svg width="21" height="20" viewBox="0 0 21 20" fill="none" xmlns="http://www.w3.org/2000/svg">
<g clip-path="url(#clip0_488_4)">
<path d="M17.8266 0H2.27105C1.04327 0 0.0488281 0.994444 0.0488281 2.22222V8.88889H9.58883L7.81883 7.11889C7.38438 6.68444 7.38438 5.98222 7.81883 5.54778C8.25327 5.11333 8.95549 5.11333 9.38994 5.54778L13.0566 9.21445C13.4899 9.64778 13.4899 10.3522 13.0566 10.7856L9.38994 14.4522C9.17327 14.6689 8.88883 14.7778 8.60438 14.7778C8.31994 14.7778 8.0355 14.6689 7.81883 14.4522C7.38438 14.0178 7.38438 13.3156 7.81883 12.8811L9.58883 11.1111H0.0488281V17.7778C0.0488281 19.0056 1.04327 20 2.27105 20H17.8266C19.0544 20 20.0488 19.0056 20.0488 17.7778V2.22222C20.0488 0.994444 19.0544 0 17.8266 0Z" fill="black"/>
</g>
<defs>
<clipPath id="clip0_488_4">
<rect width="20" height="20" fill="white" transform="translate(0.0488281)"/>
</clipPath>
</defs>
</svg>
