<svg width="50" height="16" viewBox="0 0 50 16" fill="none" xmlns="http://www.w3.org/2000/svg">
<path d="M43.1638 7.45518C41.6986 7.95245 39.7362 8.41407 37.6847 8.30376C34.9525 8.1595 32.9654 7.35674 28.9961 5.75463C28.256 5.45762 27.5193 5.14195 26.7793 4.82458C29.5378 3.86569 33.2859 5.78518 37.2255 6.75425C41.1651 7.72503 43.1638 7.45518 43.1638 7.45518Z" fill="url(#paint0_linear_536_34162)"/>
<path d="M45.6653 6.39267C45.6653 6.39267 44.6808 6.94424 43.1644 7.45679C43.1644 7.45679 41.1657 7.72494 37.2261 6.75586C33.2865 5.78678 29.5385 3.8673 26.7799 4.82619C24.0527 3.66194 21.3057 2.46205 18.4365 1.88501C23.0881 0.0385032 34.8243 3.16807 35.1084 3.24444C35.1117 3.24613 35.1134 3.24613 35.1134 3.24613C38.5046 4.76 41.9173 6.33157 45.6653 6.39267Z" fill="url(#paint1_linear_536_34162)"/>
<path d="M35.1066 3.24276C34.8225 3.16809 23.0862 0.0368298 18.4347 1.88334C17.024 1.59991 15.582 1.46584 14.0986 1.56258C14.0986 1.56258 18.3488 -0.177012 23.1424 0.0147667C25.8283 0.123385 28.4943 0.656293 31.0315 1.55748C32.3992 2.04287 33.7504 2.63858 35.1049 3.24276H35.1066Z" fill="url(#paint2_linear_536_34162)"/>
<path d="M21.0139 12.9488C19.4216 13.9739 17.5798 14.5747 15.695 14.5356C13.7525 14.4966 12.1403 13.6565 10.3762 12.9488C8.63018 12.2512 6.80986 11.5028 4.96973 11.4536C6.83794 10.7289 9.66092 11.7319 11.9735 12.2207C13.5097 12.5448 14.6296 12.37 15.3052 12.163C17.0908 12.908 18.8715 13.3985 21.0139 12.9471V12.9488Z" fill="url(#paint3_linear_536_34162)"/>
<path d="M15.3065 12.1648C14.6309 12.3718 13.5093 12.5483 11.9748 12.2225C9.66221 11.7337 6.83924 10.7307 4.97102 11.4554C4.02618 11.4316 3.07638 11.5928 2.12988 12.0392C2.12988 12.0392 4.2244 10.2096 7.09528 9.94319C8.84291 9.78196 10.6616 10.1367 12.2787 10.8223C13.3326 11.2687 14.3204 11.7558 15.3065 12.1648Z" fill="url(#paint4_linear_536_34162)"/>
<path d="M49.2906 7.13428C49.0792 7.44995 48.8809 8.24592 48.7637 8.48352C48.2169 9.59686 47.5479 10.6779 46.7071 11.5825C44.8406 13.5869 42.0671 14.6561 39.4457 15.0651C36.4757 15.525 33.4958 15.2908 30.6299 14.539C31.9563 13.5444 34.216 13.6785 35.7671 13.575C41.1999 13.2135 45.5509 11.2499 49.2906 7.13597V7.13428Z" fill="url(#paint5_linear_536_34162)"/>
<path d="M49.3876 7.02734C49.3562 7.04941 49.3215 7.08505 49.2901 7.13426C45.5521 11.2482 41.1995 13.2118 35.7666 13.5733C34.2156 13.6785 31.9559 13.5444 30.6294 14.5373C28.6605 14.023 26.7493 13.2644 24.9306 12.3225C21.3362 10.4607 17.5172 8.63795 13.457 8.26457C15.6754 7.68075 20.8242 8.29852 26.3628 9.90403C31.8997 11.5078 35.1125 10.1552 35.1125 10.1552C36.1581 10.3181 37.207 10.4369 38.2526 10.5167C42.288 10.8205 46.0476 9.2659 49.3876 7.02734Z" fill="url(#paint6_linear_536_34162)"/>
<path d="M35.1131 10.1553C35.1131 10.1553 31.902 11.5079 26.3634 9.9041C20.8232 8.30029 15.6761 7.68082 13.4577 8.26465C9.7774 7.92691 5.79649 8.10172 2.1377 9.08098C9.21578 4.17789 17.2156 4.42567 17.2156 4.42567C19.9048 5.16054 22.4849 6.44529 25.0634 7.44322C28.2746 8.68894 31.6856 9.63086 35.1131 10.1553Z" fill="url(#paint7_linear_536_34162)"/>
<path d="M17.2137 4.42572C17.2137 4.42572 9.21555 4.17794 2.13581 9.08103H2.13251C1.40736 9.2762 0.69542 9.50193 0 9.76159C0 9.76159 5.5997 4.07611 12.7686 3.8402C14.2933 3.78929 15.7683 4.02689 17.2137 4.42572Z" fill="url(#paint8_linear_536_34162)"/>
<defs>
<linearGradient id="paint0_linear_536_34162" x1="24.9012" y1="6.44198" x2="41.2873" y2="6.44198" gradientUnits="userSpaceOnUse">
<stop stop-color="#806239"/>
<stop offset="0.15" stop-color="#A38A4C"/>
<stop offset="0.21" stop-color="#A89051"/>
<stop offset="0.29" stop-color="#B8A362"/>
<stop offset="0.39" stop-color="#D2C27E"/>
<stop offset="0.5" stop-color="#F6EDA3"/>
<stop offset="0.52" stop-color="#FDF6AB"/>
<stop offset="1" stop-color="#BCA567"/>
</linearGradient>
<linearGradient id="paint1_linear_536_34162" x1="15.4352" y1="4.60556" x2="52.2993" y2="4.17308" gradientUnits="userSpaceOnUse">
<stop stop-color="#806239"/>
<stop offset="0.15" stop-color="#A38A4C"/>
<stop offset="0.19" stop-color="#A89051"/>
<stop offset="0.24" stop-color="#B8A362"/>
<stop offset="0.31" stop-color="#D2C27E"/>
<stop offset="0.38" stop-color="#F6EDA3"/>
<stop offset="0.39" stop-color="#FDF6AB"/>
<stop offset="0.71" stop-color="#BCA567"/>
</linearGradient>
<linearGradient id="paint2_linear_536_34162" x1="14.1003" y1="1.62028" x2="35.1066" y2="1.62028" gradientUnits="userSpaceOnUse">
<stop offset="0.1" stop-color="#A38A4C"/>
<stop offset="0.17" stop-color="#A89051"/>
<stop offset="0.26" stop-color="#B8A362"/>
<stop offset="0.37" stop-color="#D2C27E"/>
<stop offset="0.5" stop-color="#F6EDA3"/>
<stop offset="0.52" stop-color="#FDF6AB"/>
<stop offset="1" stop-color="#BCA567"/>
</linearGradient>
<linearGradient id="paint3_linear_536_34162" x1="4.96973" y1="12.869" x2="21.0139" y2="12.869" gradientUnits="userSpaceOnUse">
<stop stop-color="#806239"/>
<stop offset="0.15" stop-color="#A38A4C"/>
<stop offset="0.21" stop-color="#A89051"/>
<stop offset="0.29" stop-color="#B8A362"/>
<stop offset="0.39" stop-color="#D2C27E"/>
<stop offset="0.5" stop-color="#F6EDA3"/>
<stop offset="0.52" stop-color="#FDF6AB"/>
<stop offset="1" stop-color="#BCA567"/>
</linearGradient>
<linearGradient id="paint4_linear_536_34162" x1="2.12988" y1="11.1533" x2="15.3065" y2="11.1533" gradientUnits="userSpaceOnUse">
<stop stop-color="#806239"/>
<stop offset="0.15" stop-color="#A38A4C"/>
<stop offset="0.21" stop-color="#A89051"/>
<stop offset="0.29" stop-color="#B8A362"/>
<stop offset="0.39" stop-color="#D2C27E"/>
<stop offset="0.5" stop-color="#F6EDA3"/>
<stop offset="0.52" stop-color="#FDF6AB"/>
<stop offset="1" stop-color="#BCA567"/>
</linearGradient>
<linearGradient id="paint5_linear_536_34162" x1="26.7497" y1="17.8247" x2="54.3634" y2="8.09816" gradientUnits="userSpaceOnUse">
<stop stop-color="#806239"/>
<stop offset="0.15" stop-color="#A38A4C"/>
<stop offset="0.21" stop-color="#A89051"/>
<stop offset="0.29" stop-color="#B8A362"/>
<stop offset="0.39" stop-color="#D2C27E"/>
<stop offset="0.5" stop-color="#F6EDA3"/>
<stop offset="0.52" stop-color="#FDF6AB"/>
<stop offset="1" stop-color="#BCA567"/>
</linearGradient>
<linearGradient id="paint6_linear_536_34162" x1="11.2221" y1="14.2929" x2="48.6415" y2="5.81984" gradientUnits="userSpaceOnUse">
<stop stop-color="#806239"/>
<stop offset="0.15" stop-color="#A38A4C"/>
<stop offset="0.22" stop-color="#A89051"/>
<stop offset="0.31" stop-color="#B8A362"/>
<stop offset="0.43" stop-color="#D2C27E"/>
<stop offset="0.55" stop-color="#F6EDA3"/>
<stop offset="0.57" stop-color="#FDF6AB"/>
<stop offset="0.78" stop-color="#BCA567"/>
</linearGradient>
<linearGradient id="paint7_linear_536_34162" x1="2.1377" y1="7.55693" x2="35.1131" y2="7.55693" gradientUnits="userSpaceOnUse">
<stop stop-color="#806239"/>
<stop offset="0.15" stop-color="#A38A4C"/>
<stop offset="0.19" stop-color="#A89051"/>
<stop offset="0.24" stop-color="#B8A362"/>
<stop offset="0.31" stop-color="#D2C27E"/>
<stop offset="0.38" stop-color="#F6EDA3"/>
<stop offset="0.39" stop-color="#FDF6AB"/>
<stop offset="0.78" stop-color="#BCA567"/>
</linearGradient>
<linearGradient id="paint8_linear_536_34162" x1="0.00165183" y1="6.79835" x2="17.2137" y2="6.79835" gradientUnits="userSpaceOnUse">
<stop stop-color="#806239"/>
<stop offset="0.15" stop-color="#A38A4C"/>
<stop offset="0.19" stop-color="#A89051"/>
<stop offset="0.24" stop-color="#B8A362"/>
<stop offset="0.31" stop-color="#D2C27E"/>
<stop offset="0.38" stop-color="#F6EDA3"/>
<stop offset="0.39" stop-color="#FDF6AB"/>
<stop offset="0.78" stop-color="#BCA567"/>
</linearGradient>
</defs>
</svg>
