<svg width="44" height="31" viewBox="0 0 44 31" fill="none" xmlns="http://www.w3.org/2000/svg">
<path d="M30.4169 20.0243L28.0929 12.8698C27.9273 12.4304 27.5071 12.1387 27.0373 12.1387H15.7721C15.3024 12.1387 14.8822 12.4304 14.7166 12.8698L12.3926 20.0243H30.4169ZM21.4047 30.163L18.6267 22.96C18.4499 22.5454 18.0421 22.2773 17.5915 22.2773H5.99282C5.54221 22.2773 5.13441 22.5454 4.95755 22.96L2.25391 30.163H21.4047ZM23.5068 29.3519L23.82 30.163H40.5555L37.8553 22.96C37.6773 22.5454 37.2706 22.2773 36.82 22.2773H25.1403C24.6896 22.2773 24.2818 22.5454 24.105 22.96L22.5943 26.9884L23.5068 29.3519Z" fill="#1F2328"/>
<path d="M4.84423 0.164974L3.98088 2.85087L1.29474 3.71422C1.19581 3.74624 1.12891 3.838 1.12891 3.94195C1.12891 4.0459 1.19581 4.13766 1.29474 4.16944L3.98088 5.0328L4.84423 7.71869C4.87601 7.81786 4.96777 7.88477 5.07172 7.88477C5.17567 7.88477 5.26743 7.81786 5.29921 7.71893L6.16257 5.03304L8.8487 4.16968C8.94763 4.13766 9.01454 4.0459 9.01454 3.94195C9.01454 3.838 8.94763 3.74624 8.8487 3.71446L6.16257 2.85111L5.29921 0.165213C5.26743 0.0660454 5.17567 -0.00086285 5.07172 -0.000862845C4.96777 -0.000862841 4.87601 0.0660456 4.84423 0.164974Z" fill="#FCD535"/>
<path d="M3.03902 15.5788L3.64734 13.3889L5.4723 12.6589C5.56805 12.6206 5.63259 12.5133 5.63259 12.3919C5.63259 12.2705 5.56805 12.163 5.47206 12.1249L3.6471 11.395L3.03878 9.20501C3.0071 9.08982 2.91745 9.01237 2.8163 9.01237C2.71514 9.01237 2.62549 9.08982 2.59357 9.20501L1.98525 11.395L0.160294 12.1249C0.06454 12.163 -1.53031e-07 12.2705 -1.47725e-07 12.3919C-1.42419e-07 12.5133 0.06454 12.6209 0.160529 12.6589L1.98525 13.3889L2.59357 15.5788C2.62573 15.694 2.71514 15.7715 2.8163 15.7715C2.91745 15.7715 3.0071 15.694 3.03902 15.5788Z" fill="#FCD535"/>
<path d="M8.76946 8.05579L8.30826 9.43923L6.92517 9.90038C6.82301 9.93418 6.75391 10.0298 6.75391 10.1377C6.75391 10.2456 6.82276 10.3412 6.92517 10.375L8.30826 10.8362L8.76946 12.2194C8.80351 12.3215 8.89915 12.3906 9.00707 12.3906C9.11498 12.3906 9.21063 12.3218 9.24468 12.2194L9.70588 10.8359L11.089 10.375C11.1909 10.341 11.26 10.2456 11.26 10.1377C11.26 10.0298 11.1911 9.93418 11.0887 9.90038L9.70563 9.43923L9.24443 8.05579C9.21038 7.9534 9.11473 7.88455 9.00707 7.88455C8.8994 7.88455 8.80351 7.9534 8.76946 8.05579Z" fill="#1F2328"/>
<path d="M38.8477 5.56836L38.8477 15.0392" stroke="#FCD535" stroke-width="2" stroke-linecap="square" stroke-linejoin="round"/>
<path d="M32.1484 11.6602L32.1484 2.18931" stroke="#1F2328" stroke-width="2" stroke-linecap="square" stroke-linejoin="round"/>
<path d="M41.9975 13.0723L38.8405 16.2292L35.6836 13.0723" stroke="#FCD535" stroke-width="2" stroke-linecap="square" stroke-linejoin="round"/>
<path d="M28.9986 4.15625L32.1556 0.999302L35.3125 4.15625" stroke="#1F2328" stroke-width="2" stroke-linecap="square" stroke-linejoin="round"/>
</svg>
