<svg width="21" height="21" viewBox="0 0 21 21" fill="none" xmlns="http://www.w3.org/2000/svg">
<g clip-path="url(#clip0_488_119)">
<path d="M9 8C6.794 8 5 6.206 5 4C5 1.794 6.794 0 9 0C11.206 0 13 1.794 13 4C13 6.206 11.206 8 9 8ZM17.146 13.854L19.146 15.854L14 21H12V19L17.146 13.854ZM18.854 12.146L17.854 13.146L19.854 15.146L20.854 14.146C21.049 13.951 21.049 13.634 20.854 13.439L19.561 12.146C19.365 11.951 19.049 11.951 18.854 12.146ZM14.92 13.252C15.259 12.913 15.142 12.339 14.698 12.157C12.837 11.393 10.578 11 9 11C5.859 11 0 12.545 0 15.5V17C0 17.552 0.448 18 1 18H9.493C9.928 18 10.345 17.827 10.652 17.52L14.92 13.252Z" fill="#181A20"/>
</g>
<defs>
<clipPath id="clip0_488_119">
<rect width="21.0002" height="21" fill="white"/>
</clipPath>
</defs>
</svg>
