<svg width="28" height="23" viewBox="0 0 28 23" fill="none" xmlns="http://www.w3.org/2000/svg">
<path d="M27.2266 3.27763C26.4504 4.40666 25.5507 5.324 24.5275 6.02964V6.77057C24.5275 8.53468 24.1923 10.3253 23.5219 12.1423C22.8516 13.9593 21.8725 15.6 20.5847 17.0642C19.2969 18.5284 17.7004 19.728 15.7951 20.663C13.8899 21.5979 11.7024 22.0654 9.23261 22.0654C7.68019 22.0654 6.21598 21.8537 4.83997 21.4303C3.46396 21.007 2.17616 20.4072 0.976562 19.631C1.18826 19.6662 1.39995 19.6927 1.61164 19.7103C1.82334 19.728 2.03503 19.7368 2.24672 19.7368C3.51689 19.7368 4.7253 19.5251 5.87198 19.1017C7.01865 18.6783 8.05066 18.1138 8.96799 17.4082C7.7684 17.3729 6.71875 17.0112 5.81905 16.3232C4.91935 15.6352 4.29309 14.7444 3.94027 13.6506C4.11668 13.7212 4.28427 13.7565 4.44304 13.7565H4.94582C5.43977 13.7565 5.89844 13.7035 6.32182 13.5977C5.08695 13.3154 4.06376 12.6892 3.25227 11.7189C2.44078 10.7486 2.03503 9.61079 2.03503 8.30535V8.25242C2.42314 8.42884 2.81124 8.57879 3.19934 8.70227C3.58745 8.82576 4.01084 8.88751 4.46951 8.88751C3.76386 8.39355 3.19052 7.75847 2.7495 6.98226C2.30847 6.20605 2.08795 5.35928 2.08795 4.44194C2.08795 3.45404 2.33493 2.55434 2.82888 1.74285C4.16961 3.36583 5.79259 4.6801 7.69783 5.68564C9.60308 6.69118 11.6671 7.24688 13.8899 7.35273C13.784 6.92934 13.7311 6.52359 13.7311 6.13549C13.7311 5.39456 13.8722 4.69774 14.1545 4.04502C14.4367 3.39229 14.8248 2.81896 15.3188 2.32501C15.8128 1.83105 16.3861 1.44295 17.0388 1.16069C17.6915 0.878434 18.3884 0.737305 19.1293 0.737305C19.9055 0.737305 20.6288 0.887254 21.2991 1.18715C21.9695 1.48705 22.5517 1.90162 23.0456 2.43085C23.6807 2.32501 24.2805 2.15742 24.845 1.92808C25.4095 1.69875 25.9564 1.42531 26.4856 1.10777C26.0622 2.41321 25.2684 3.41876 24.1041 4.1244C25.2331 3.94799 26.2739 3.66573 27.2266 3.27763Z" fill="#989A9C"/>
</svg>
